<?xml version="1.0" encoding="UTF-8"?>
<!-- Created with Inkscape (http://www.inkscape.org/) -->
<svg id="svg8" width="1e3mm" height="1e3mm" version="1.1" viewBox="0 0 1e3 1e3" xmlns="http://www.w3.org/2000/svg" xmlns:cc="http://creativecommons.org/ns#" xmlns:dc="http://purl.org/dc/elements/1.1/" xmlns:osb="http://www.openswatchbook.org/uri/2009/osb" xmlns:rdf="http://www.w3.org/1999/02/22-rdf-syntax-ns#" xmlns:xlink="http://www.w3.org/1999/xlink">
 <defs id="defs2">
  <linearGradient id="linearGradient1283" x1="500" x2="350" y1="125" y2="850" gradientUnits="userSpaceOnUse">
   <stop id="stop1277" stop-color="#f00" offset="0"/>
   <stop id="stop1279" stop-color="#ff9c00" offset="1"/>
  </linearGradient>
 </defs>
 <metadata id="metadata5">
  <rdf:RDF>
   <cc:Work rdf:about="">
    <dc:format>image/svg+xml</dc:format>
    <dc:type rdf:resource="http://purl.org/dc/dcmitype/StillImage"/>
    <dc:title/>
   </cc:Work>
  </rdf:RDF>
 </metadata>
 <g id="layer1" display="none">
  <path id="path2981" d="m501 0c-38 0-73 21-90 55l-400 800c-16 31-14 68 4 98 18 29 50 47 85 47h800c35 0 67-18 85-47 18-30 20-67 4-98l-400-800c-16-33-51-55-88-55m-1 50c19 0 36 11 45 28l400 800c7 15 7 34-2 48-10 15-26 24-43 24h-800c-17 0-33-9-43-24-9-14-9-33-2-48l400-800c9-17 26-28 45-28" display="inline" fill="none" stroke="#000" stroke-width=".37"/>
 </g>
 <g id="g818" display="none">
  <path id="path816" d="m501 0c-57 0-110 32-135 83l-350 700c-23 46-21 102 6 146 28 44 76 71 128 71h700c52 0 100-27 128-71 27-44 29-100 6-146l-350-700c-25-51-77-83-133-83m-1 100c19 0 36 11 45 28l350 700c7 15 7 34-2 48-10 15-26 24-43 24h-700c-17 0-33-9-43-24-9-14-9-33-2-48l350-700c9-17 26-28 45-28" display="inline" fill="none" stroke="#000" stroke-width=".37"/>
 </g>
 <g id="g822" display="none">
  <path id="path820" d="m501 0c-76 0-146 42-180 111l-300 600c-31 62-28 135 9 194 36 59 101 95 170 95h600c69 0 134-36 170-95 37-59 40-132 9-194l-300-600c-34-68-102-110-178-111m-1 150c19 0 36 11 45 28l300 600c7 15 7 34-2 48-10 15-26 24-43 24h-600c-17 0-33-9-43-24-9-14-9-33-2-48l300-600c9-17 26-28 45-28" fill="none" stroke="#000" stroke-width=".37"/>
 </g>
 <g id="g826" display="none">
  <path id="path824" d="m495 50c-34 2-65 21-82 50l-400 700c-18 31-18 69 0 100s51 50 86 50h800c36 0 69-19 86-50 18-31 18-69 0-100l-400-700c-19-33-54-52-92-50m2 50c19-1 36 9 46 25l400 700c9 15 9 34 0 50-9 15-25 25-43 25h-800c-18 0-34-9-43-25-9-15-9-34 0-50l400-700c8-15 24-24 41-25" fill="none" stroke="#000" stroke-width=".37"/>
 </g>
 <g id="g830" display="none">
  <path id="path828" d="m506 54c-56-2-108 27-136 75 0 0-349 595-349 595-27 47-28 104-1 151s77 76 131 76h700c54 0 104-29 131-76s26-104-1-151c0 0-351-595-351-595-26-44-73-72-124-74m-4 100c17 1 32 10 41 24 0 0 351 595 351 595 9 15 9 34 0 50-9 15-25 25-43 25h-700c-18 0-34-9-43-25-9-15-9-34 0-50 0 0 349-595 349-595 9-16 26-25 45-24" fill="none" stroke="#000" stroke-width=".37"/>
 </g>
 <g id="g834" display="none">
  <path id="path832" d="m494 25c-71 2-136 42-170 104 0 0-300 550-300 550-33 62-32 137 4 198s101 98 172 98h600c71 0 136-37 172-98s37-136 4-198c0 0-300-550-300-550-36-66-107-106-182-104m5 150c18-1 36 10 45 26 0 0 300 550 300 550 8 16 8 34-1 50-9 15-25 24-43 24h-600c-18 0-34-9-43-24-9-16-9-34-1-50 0 0 300-550 300-550 9-16 25-25 43-26" fill="none" stroke="#000" stroke-width=".37"/>
 </g>
 <g id="g838" display="none">
  <path id="path836" d="m500 0c-133 0-260 52-354 146-94 94-146 221-146 354s53 260 146 354c94 93 221 146 354 146s260-53 354-146c93-94 146-221 146-354s-53-260-146-354c-94-93-221-146-354-146m0 50c249 0 450 201 450 450s-201 450-450 450-450-201-450-450 201-450 450-450" fill="none" stroke="#000" stroke-width=".37"/>
 </g>
 <g id="g842" display="none">
  <path id="path840" d="m500 0c-133 0-260 53-354 146-93 94-146 221-146 354s53 260 146 354c94 94 221 146 354 146s260-53 354-146c93-94 146-221 146-354s-53-260-146-354c-94-93-221-146-354-146m0 100c106 0 208 42 283 117s117 177 117 283-42 208-117 283-177 117-283 117-208-42-283-117-117-177-117-283 42-208 117-283 177-117 283-117" display="inline" fill="none" stroke="#000" stroke-width=".37"/>
 </g>
 <g id="g846" display="none">
  <path id="path844" d="m500 0c-133 0-260 53-354 146-93 94-146 221-146 354s53 260 146 354c94 94 221 146 354 146s260-53 354-146c93-94 146-221 146-354s-53-260-146-354c-94-93-221-146-354-146m0 150c193 0 350 157 350 350s-157 350-350 350-350-157-350-350 157-350 350-350" display="inline" fill="none" stroke="#000" stroke-width=".37"/>
 </g>
 <g id="g850" display="none">
  <path id="path848" d="m100 0c-50 0-100 50-100 100v800c0 50 50 100 100 100h800c-800 0 0 0 0 0 50 0 100-50 100-100v-800c0-50-50-100-100-100h-800m0 50h800c25 0 50 25 50 50v800c0 27-23 50-50 50h-800c-25 0-50-25-50-50v-800c0-25 25-50 50-50" display="inline" fill="none" stroke="#000" stroke-width=".37"/>
 </g>
 <g id="g854" display="none">
  <path id="path852" d="m150 0c-83 0-150 67-150 150v700c0 83 67 150 150 150h700c83 0 150-67 150-150v-700c0-83-67-150-150-150h-700m0 100h700c28 0 50 22 50 50v700c0 28-22 50-50 50h-700c-28 0-50-22-50-50v-700c0-28 22-50 50-50" display="inline" fill="none" stroke="#000" stroke-width=".37"/>
 </g>
 <g id="g858" display="none">
  <path id="path856" d="m200 0c-111 0-200 89-200 200v600c0 111 89 200 200 200h600c111 0 200-89 200-200v-600c0-111-89-200-200-200h-600m0 150h600c28 0 50 22 50 50v600c0 28-22 50-50 50h-600c-28 0-50-22-50-50v-600c0-28 22-50 50-50" display="inline" fill="none" stroke="#000" stroke-width=".37"/>
 </g>
 <g id="g862" display="none">
  <path id="path860" d="m300 54c-35 0-69 20-87 50l-200 346c-17 30-17 70 0 100l200 346c17 30 52 50 87 50h400c35 0 69-20 87-50l200-346c17-30 17-70 0-100l-200-346c-17-30-52-50-87-50h-400m0 50h400c18 0 34 10 43 25l200 346c9 15 9 35 0 50l-200 346c-9 15-25 25-43 25h-400c-18 0-34-10-43-25l-200-346c-9-15-9-35 0-50l200-346c9-15 25-25 43-25" display="inline" fill="none" stroke="#000" stroke-width=".37"/>
 </g>
 <g id="g866" display="none">
  <path id="path864" d="m325 47c-54 0-103 29-130 75 0 0-175 303-175 303-27 46-27 104 0 150 0 0 175 303 175 303 27 46 76 75 130 75h350c54 0 103-29 130-75 0 0 175-303 175-303 27-46 27-104 0-150 0 0-175-303-175-303-27-46-76-75-130-75h-350m0 100h350c18 0 34 10 43 25 0 0 175 303 175 303 9 15 9 35 0 50 0 0-175 303-175 303-9 15-25 25-43 25h-350c-18 0-34-10-43-25 0 0-175-303-175-303-9-15-9-35 0-50 0 0 175-303 175-303 9-15 25-25 43-25" display="inline" fill="none" stroke="#000" stroke-width=".37"/>
 </g>
 <g id="g870" display="none">
  <path id="path868" d="m350 40c-71 0-137 38-173 100l-150 260c-36 62-36 138 0 200l150 260c36 62 102 100 173 100h300c71 0 137-38 173-100l150-260c36-62 36-138 0-200l-150-260c-36-62-102-100-173-100h-300m0 150h300c18 0 34 10 43 25l150 260c9 15 9 35 0 50l-150 260c-9 15-25 25-43 25h-300c-18 0-34-10-43-25l-150-260c-9-15-9-35 0-50l150-260c9-15 25-25 43-25" display="inline" fill="none" stroke="#000" stroke-width=".37"/>
 </g>
 <g id="g874" display="none">
  <path id="path872" d="m333 1c-25 0-50 10-67 28l-236 236c-18 18-28 42-28 67v334c0 25 10 50 28 67l236 236c18 18 42 28 67 28h334c25 0 50-10 67-28l236-236c18-18 28-42 28-67v-334c0-25-10-50-28-67l-236-236c-18-18-42-28-67-28h-334m0 47h334c13 0 25 5 34 14l236 236c9 9 14 21 14 34v334c0 13-5 25-14 34l-236 236c-9 9-21 14-34 14h-334c-13 0-25-5-34-14l-236-236c-9-9-14-21-14-34v-334c0-13 5-25 14-34l236-236c9-9 21-14 34-14" display="inline" fill="none" stroke="#000" stroke-width=".37"/>
 </g>
 <g id="g878" display="none">
  <path id="path876" d="m354 0c-39 0-77 16-105 43l-206 206c-27 28-43 66-43 105v291c0 39 16 77 43 105l206 206c28 28 65 43 105 43h291c39 0 77-16 105-43l206-206c28-28 43-65 43-105v-291c0-39-16-77-43-105l-206-206c-27-27-65-43-104-43h-291m0 100h291c13 0 25 5 34 14l206 206c9 9 14 21 14 34v291c0 13-5 25-14 34l-206 206c-9 9-21 14-34 14h-291c-13 0-25-5-34-14l-206-206c-9-9-14-21-14-34v-291c0-13 5-25 14-34l206-206c9-9 21-14 34-14" display="inline" fill="none" stroke="#000" stroke-width=".37"/>
 </g>
 <g id="g882" display="none">
  <path id="path880" d="m623 0-249 1c-53 0-104 21-141 59l-176 176c-37 38-58 88-58 141l1 249c0 53 21 104 59 141l176 176c38 37 88 58 141 58l249-1c53 0 104-21 141-59l176-176c37-38 58-88 58-141l-1-249c0-53-21-104-59-141l-176-176c-38-37-88-58-141-58m0 150c13 0 26 5 35 14l176 176c9 9 15 22 15 35l1 249c0 13-5 26-14 35l-176 176c-9 9-22 15-35 15l-249 1c-13 0-26-5-35-14l-176-176c-9-9-15-22-15-35l-1-249c0-13 5-26 14-35l176-176c9-9 22-15 35-15l249-1" display="inline" fill="none" stroke="#000" stroke-width=".37"/>
 </g>
 <g id="layer4">
  <path id="path2069" d="m695 375 0.059-0.03c110 57 198 156 196 285-3 157-149 259-291 290 0-100 25-100 100-150s25-131-25-175c-179 137-350 200-225-250-118 103-273 351-100 400 150 25 134 159 150 175-125 0-323-13-380-204-31-114 11-229 80-320 34-46 74-87 116-125 39-36 81-69 117-109 36-41 81-115 47-170 62 47 113 124 104 205-6.7 64-55 129-7.7 190 29 38 89 30 111-6.8-0.56 0.66-1.2 1.3-1.8 1.9 3.7-5.9 6.4-12 8.1-19-0.014 0.97-0.074 1.9-0.18 2.9 1.4-5.2 2.1-11 2.1-17-0.09 4.8-0.82 9.5-1.9 14 0.09-5.5-0.88-12-3.9-19 2 1.1 3.8 2.1 5.8 3.1" fill="url(#linearGradient1283)" stroke-width="0"/>
  <flowRoot id="flowRoot986" transform="scale(.26)" fill="#ffffff" font-family="OpenSymbol" font-size="40px" letter-spacing="0px" word-spacing="0px" style="line-height:1.25" xml:space="preserve"><flowRegion id="flowRegion988"><rect id="rect990" x="378" y="1134" width="94" height="94" fill="#fff"/></flowRegion><flowPara id="flowPara992" font-family="Chilanka" font-size="192px">4</flowPara></flowRoot>
  <text id="text996" x="100" y="300" fill="#000000" font-family="OpenSymbol" font-size="11px" letter-spacing="0px" stroke-width=".26" word-spacing="0px" style="line-height:1.25" xml:space="preserve"><tspan id="tspan994" x="100" y="300" stroke-width=".26">4</tspan></text>
 </g>
</svg>
